<svg id="visual" viewBox="0 0 900 600" width="900" height="600" xmlns="http://www.w3.org/2000/svg" xmlns:xlink="http://www.w3.org/1999/xlink" version="1.1"><g stroke-width="1" stroke-linejoin="bevel"><path d="M504 304L576 266L561 235Z" fill="#19435d" stroke="#19435d"></path><path d="M561 235L477 211L504 304Z" fill="#081a28" stroke="#081a28"></path><path d="M379 264L463 386L504 304Z" fill="#246688" stroke="#246688"></path><path d="M504 304L570 405L576 266Z" fill="#246688" stroke="#246688"></path><path d="M463 386L570 405L504 304Z" fill="#00101c" stroke="#00101c"></path><path d="M477 211L379 264L504 304Z" fill="#1d4e6b" stroke="#1d4e6b"></path><path d="M477 211L360 226L379 264Z" fill="#00101c" stroke="#00101c"></path><path d="M379 264L398 406L463 386Z" fill="#205a7a" stroke="#205a7a"></path><path d="M463 386L500 519L570 405Z" fill="#15384f" stroke="#15384f"></path><path d="M330 387L398 406L379 264Z" fill="#19435d" stroke="#19435d"></path><path d="M675 106L612 86L561 235Z" fill="#112e42" stroke="#112e42"></path><path d="M561 235L516 67L477 211Z" fill="#112e42" stroke="#112e42"></path><path d="M477 211L409 106L360 226Z" fill="#277297" stroke="#277297"></path><path d="M722 193L561 235L576 266Z" fill="#277297" stroke="#277297"></path><path d="M612 86L516 67L561 235Z" fill="#00101c" stroke="#00101c"></path><path d="M570 405L723 336L576 266Z" fill="#0c2435" stroke="#0c2435"></path><path d="M516 67L409 106L477 211Z" fill="#112e42" stroke="#112e42"></path><path d="M723 336L722 193L576 266Z" fill="#297ea6" stroke="#297ea6"></path><path d="M722 193L675 106L561 235Z" fill="#1d4e6b" stroke="#1d4e6b"></path><path d="M570 405L695 411L723 336Z" fill="#297ea6" stroke="#297ea6"></path><path d="M611 527L695 411L570 405Z" fill="#205a7a" stroke="#205a7a"></path><path d="M266 214L301 298L360 226Z" fill="#297ea6" stroke="#297ea6"></path><path d="M360 226L301 298L379 264Z" fill="#00101c" stroke="#00101c"></path><path d="M301 298L330 387L379 264Z" fill="#297ea6" stroke="#297ea6"></path><path d="M382 538L500 519L398 406Z" fill="#246688" stroke="#246688"></path><path d="M398 406L500 519L463 386Z" fill="#246688" stroke="#246688"></path><path d="M596 0L521 0L516 67Z" fill="#205a7a" stroke="#205a7a"></path><path d="M516 67L407 0L409 106Z" fill="#246688" stroke="#246688"></path><path d="M596 0L516 67L612 86Z" fill="#297ea6" stroke="#297ea6"></path><path d="M500 519L611 527L570 405Z" fill="#277297" stroke="#277297"></path><path d="M310 86L360 226L409 106Z" fill="#205a7a" stroke="#205a7a"></path><path d="M310 86L266 214L360 226Z" fill="#0c2435" stroke="#0c2435"></path><path d="M301 298L212 391L330 387Z" fill="#297ea6" stroke="#297ea6"></path><path d="M710 0L596 0L612 86Z" fill="#15384f" stroke="#15384f"></path><path d="M334 0L310 86L409 106Z" fill="#205a7a" stroke="#205a7a"></path><path d="M611 527L691 516L695 411Z" fill="#277297" stroke="#277297"></path><path d="M830 387L839 264L723 336Z" fill="#081a28" stroke="#081a28"></path><path d="M521 0L407 0L516 67Z" fill="#205a7a" stroke="#205a7a"></path><path d="M830 387L723 336L695 411Z" fill="#081a28" stroke="#081a28"></path><path d="M723 336L839 264L722 193Z" fill="#205a7a" stroke="#205a7a"></path><path d="M722 193L812 107L675 106Z" fill="#277297" stroke="#277297"></path><path d="M675 106L710 0L612 86Z" fill="#0c2435" stroke="#0c2435"></path><path d="M292 505L398 406L330 387Z" fill="#277297" stroke="#277297"></path><path d="M292 505L382 538L398 406Z" fill="#112e42" stroke="#112e42"></path><path d="M500 519L575 600L611 527Z" fill="#277297" stroke="#277297"></path><path d="M839 264L835 205L722 193Z" fill="#15384f" stroke="#15384f"></path><path d="M225 186L218 298L266 214Z" fill="#19435d" stroke="#19435d"></path><path d="M266 214L218 298L301 298Z" fill="#277297" stroke="#277297"></path><path d="M310 86L225 186L266 214Z" fill="#19435d" stroke="#19435d"></path><path d="M832 475L830 387L695 411Z" fill="#205a7a" stroke="#205a7a"></path><path d="M812 107L710 0L675 106Z" fill="#1d4e6b" stroke="#1d4e6b"></path><path d="M835 205L812 107L722 193Z" fill="#205a7a" stroke="#205a7a"></path><path d="M407 0L334 0L409 106Z" fill="#297ea6" stroke="#297ea6"></path><path d="M310 86L222 79L225 186Z" fill="#00101c" stroke="#00101c"></path><path d="M475 600L575 600L500 519Z" fill="#246688" stroke="#246688"></path><path d="M611 527L724 600L691 516Z" fill="#00101c" stroke="#00101c"></path><path d="M382 538L475 600L500 519Z" fill="#15384f" stroke="#15384f"></path><path d="M212 391L292 505L330 387Z" fill="#277297" stroke="#277297"></path><path d="M382 538L364 600L475 600Z" fill="#297ea6" stroke="#297ea6"></path><path d="M173 476L98 397L136 478Z" fill="#00101c" stroke="#00101c"></path><path d="M218 298L212 391L301 298Z" fill="#15384f" stroke="#15384f"></path><path d="M238 0L222 79L310 86Z" fill="#205a7a" stroke="#205a7a"></path><path d="M173 476L212 391L98 397Z" fill="#081a28" stroke="#081a28"></path><path d="M802 600L832 475L691 516Z" fill="#297ea6" stroke="#297ea6"></path><path d="M691 516L832 475L695 411Z" fill="#1d4e6b" stroke="#1d4e6b"></path><path d="M830 387L900 274L839 264Z" fill="#297ea6" stroke="#297ea6"></path><path d="M839 264L900 230L835 205Z" fill="#15384f" stroke="#15384f"></path><path d="M835 205L900 120L812 107Z" fill="#1d4e6b" stroke="#1d4e6b"></path><path d="M900 392L900 274L830 387Z" fill="#1d4e6b" stroke="#1d4e6b"></path><path d="M900 274L900 230L839 264Z" fill="#1d4e6b" stroke="#1d4e6b"></path><path d="M305 600L364 600L382 538Z" fill="#081a28" stroke="#081a28"></path><path d="M575 600L724 600L611 527Z" fill="#0c2435" stroke="#0c2435"></path><path d="M900 0L806 0L812 107Z" fill="#1d4e6b" stroke="#1d4e6b"></path><path d="M812 107L806 0L710 0Z" fill="#0c2435" stroke="#0c2435"></path><path d="M832 475L900 392L830 387Z" fill="#0c2435" stroke="#0c2435"></path><path d="M900 230L900 120L835 205Z" fill="#1d4e6b" stroke="#1d4e6b"></path><path d="M334 0L238 0L310 86Z" fill="#205a7a" stroke="#205a7a"></path><path d="M170 600L305 600L292 505Z" fill="#0c2435" stroke="#0c2435"></path><path d="M292 505L305 600L382 538Z" fill="#081a28" stroke="#081a28"></path><path d="M212 391L80 338L98 397Z" fill="#205a7a" stroke="#205a7a"></path><path d="M212 391L173 476L292 505Z" fill="#0c2435" stroke="#0c2435"></path><path d="M724 600L802 600L691 516Z" fill="#00101c" stroke="#00101c"></path><path d="M832 475L900 539L900 392Z" fill="#246688" stroke="#246688"></path><path d="M212 391L218 298L80 338Z" fill="#19435d" stroke="#19435d"></path><path d="M173 476L170 600L292 505Z" fill="#112e42" stroke="#112e42"></path><path d="M218 298L225 186L78 214Z" fill="#19435d" stroke="#19435d"></path><path d="M78 214L225 186L69 92Z" fill="#19435d" stroke="#19435d"></path><path d="M900 120L900 0L812 107Z" fill="#1d4e6b" stroke="#1d4e6b"></path><path d="M69 92L225 186L222 79Z" fill="#0c2435" stroke="#0c2435"></path><path d="M78 214L80 338L218 298Z" fill="#297ea6" stroke="#297ea6"></path><path d="M802 600L900 539L832 475Z" fill="#205a7a" stroke="#205a7a"></path><path d="M136 478L170 600L173 476Z" fill="#19435d" stroke="#19435d"></path><path d="M98 600L170 600L136 478Z" fill="#297ea6" stroke="#297ea6"></path><path d="M110 0L69 92L222 79Z" fill="#081a28" stroke="#081a28"></path><path d="M78 214L0 286L80 338Z" fill="#081a28" stroke="#081a28"></path><path d="M802 600L900 600L900 539Z" fill="#00101c" stroke="#00101c"></path><path d="M238 0L110 0L222 79Z" fill="#277297" stroke="#277297"></path><path d="M80 338L0 404L98 397Z" fill="#246688" stroke="#246688"></path><path d="M0 538L98 600L136 478Z" fill="#112e42" stroke="#112e42"></path><path d="M0 189L0 286L78 214Z" fill="#1d4e6b" stroke="#1d4e6b"></path><path d="M0 98L0 189L69 92Z" fill="#081a28" stroke="#081a28"></path><path d="M69 92L0 189L78 214Z" fill="#0c2435" stroke="#0c2435"></path><path d="M0 404L136 478L98 397Z" fill="#205a7a" stroke="#205a7a"></path><path d="M0 286L0 404L80 338Z" fill="#246688" stroke="#246688"></path><path d="M0 0L0 98L69 92Z" fill="#112e42" stroke="#112e42"></path><path d="M110 0L0 0L69 92Z" fill="#246688" stroke="#246688"></path><path d="M0 404L0 538L136 478Z" fill="#205a7a" stroke="#205a7a"></path><path d="M0 538L0 600L98 600Z" fill="#15384f" stroke="#15384f"></path></g></svg>